<?xml version="1.0" standalone="no"?>
<!DOCTYPE svg PUBLIC "-//W3C//DTD SVG 20010904//EN"
 "http://www.w3.org/TR/2001/REC-SVG-20010904/DTD/svg10.dtd">
<svg version="1.0" xmlns="http://www.w3.org/2000/svg"
 width="1080.000000pt" height="1080.000000pt" viewBox="0 0 1080.000000 1080.000000"
 preserveAspectRatio="xMidYMid meet">

<g transform="translate(0.000000,1080.000000) scale(0.100000,-0.100000)"
fill="#000000" stroke="none">
<path d="M4890 10010 c-570 -70 -1116 -471 -1375 -1012 -114 -237 -165 -454
-165 -696 1 -275 36 -428 185 -787 120 -289 198 -506 260 -719 148 -508 215
-924 215 -1328 0 -508 -102 -799 -316 -904 -52 -25 -70 -29 -149 -29 -79 0
-96 4 -144 28 -123 65 -211 188 -211 296 -1 52 -2 55 -16 36 -9 -11 -35 -60
-59 -110 -238 -488 -93 -829 406 -954 164 -42 309 -55 517 -48 138 5 201 11
283 31 415 96 760 382 1028 850 45 78 81 146 80 151 0 6 -35 32 -77 60 -175
113 -425 346 -563 525 -166 214 -232 350 -314 645 -28 103 -36 120 -55 125
-17 4 -28 19 -39 52 -21 63 -26 65 -40 18 -6 -22 -15 -40 -20 -40 -21 0 -57
59 -110 181 -32 74 -81 180 -109 235 -64 128 -89 206 -102 319 -12 112 1 239
34 330 45 125 97 173 193 182 l58 5 0 -238 c1 -260 17 -405 59 -537 l22 -72 8
110 c15 241 70 583 108 674 14 34 14 33 31 -90 24 -170 49 -309 56 -309 3 0
14 27 25 60 43 139 152 325 273 467 136 159 381 315 588 375 89 26 159 27 855
17 307 -4 331 -3 423 18 123 27 212 69 275 127 47 44 102 137 102 173 0 10 4
24 9 32 12 19 68 -68 137 -214 69 -146 110 -265 129 -377 36 -205 92 -316 226
-448 53 -52 104 -109 112 -127 25 -47 54 -164 73 -291 9 -62 20 -114 24 -117
7 -4 50 224 70 370 20 146 9 459 -26 715 -59 441 -193 791 -397 1045 -237 295
-600 509 -1007 594 -107 22 -252 41 -321 41 -45 0 -46 1 -115 86 -239 298
-569 468 -929 479 -71 2 -164 0 -205 -5z"/>
<path d="M7792 6118 c-78 -246 -105 -364 -122 -531 -21 -208 17 -394 89 -431
46 -24 151 -21 185 5 106 83 115 394 22 749 -31 118 -105 352 -115 363 -4 4
-31 -66 -59 -155z"/>
<path d="M4770 3951 c-143 -76 -507 -196 -865 -286 -169 -42 -241 -65 -310
-99 -211 -105 -392 -322 -476 -571 l-24 -70 -3 -1210 c-2 -870 0 -1229 9
-1278 24 -147 136 -301 269 -371 133 -70 -61 -66 2721 -66 1752 0 2533 3 2575
11 192 35 359 191 410 384 11 40 14 288 14 1287 l0 1238 -30 92 c-62 195 -207
385 -386 509 -75 51 -170 89 -318 125 -371 92 -711 200 -894 285 -96 44 -117
46 -269 23 -294 -43 -509 -136 -594 -258 -22 -31 -348 -722 -468 -991 l-18
-40 -253 505 c-237 474 -256 508 -310 561 -104 102 -295 179 -545 219 -147 24
-190 24 -235 1z"/>
</g>
</svg>
