<?xml version="1.0" standalone="no"?>
<!DOCTYPE svg PUBLIC "-//W3C//DTD SVG 20010904//EN"
 "http://www.w3.org/TR/2001/REC-SVG-20010904/DTD/svg10.dtd">
<svg version="1.0" xmlns="http://www.w3.org/2000/svg"
 width="1080.000000pt" height="1080.000000pt" viewBox="0 0 1080.000000 1080.000000"
 preserveAspectRatio="xMidYMid meet">

<g transform="translate(0.000000,1080.000000) scale(0.100000,-0.100000)"
fill="#000000" stroke="none">
<path d="M6240 10502 c0 -85 -71 -188 -183 -264 -218 -148 -651 -268 -1242
-343 -361 -46 -607 -134 -754 -271 -57 -53 -101 -121 -101 -158 0 -10 -20 -43
-44 -75 -146 -190 -302 -471 -371 -670 -70 -203 -69 -178 -19 -930 25 -366 47
-676 50 -688 3 -19 11 -23 39 -23 40 0 115 -32 140 -61 16 -17 31 -140 34
-281 1 -27 2 -28 61 -28 56 0 60 2 60 23 0 12 9 146 21 297 l21 275 159 474
c88 261 170 518 184 570 38 152 67 338 69 441 l1 95 90 -91 c200 -203 484
-377 905 -554 280 -118 810 -272 1194 -346 125 -24 149 -32 155 -49 4 -11 41
-271 81 -577 l74 -558 87 0 86 0 12 148 c6 81 15 158 19 172 10 33 67 62 115
58 35 -3 37 -2 37 27 0 16 13 370 30 785 l30 756 31 84 c64 174 87 340 69 499
-21 194 -85 362 -202 532 -63 93 -212 250 -291 306 l-43 32 -12 -70 c-23 -135
-87 -217 -184 -239 -71 -16 -104 -11 -100 15 8 53 1 166 -13 220 -23 93 -117
273 -199 383 -86 116 -96 124 -96 84z"/>
<path d="M5282 3898 c-60 -62 -129 -136 -155 -164 l-47 -52 50 -180 51 -180
-216 -1520 c-118 -836 -215 -1528 -215 -1536 0 -14 65 -16 649 -16 l650 0 -5
32 c-3 18 -101 710 -218 1537 l-212 1504 48 171 c26 94 48 177 48 184 0 15
-298 332 -312 332 -5 0 -57 -51 -116 -112z"/>
</g>
</svg>
